<svg xmlns="http://www.w3.org/2000/svg" viewBox="0 0 100 100" width="100" height="100">
  <!-- 土壤 -->
  <ellipse cx="50" cy="85" rx="40" ry="15" fill="#795548"/>
  
  <!-- 树干 -->
  <path d="M50 80 C50 75, 48 70, 50 65 C52 60, 50 55, 50 50" fill="none" stroke="#8D6E63" stroke-width="3" stroke-linecap="round"/>
  
  <!-- 树枝 -->
  <path d="M50 70 C55 65, 60 60, 65 55" fill="none" stroke="#8D6E63" stroke-width="2" stroke-linecap="round"/>
  <path d="M50 65 C45 60, 40 55, 35 50" fill="none" stroke="#8D6E63" stroke-width="2" stroke-linecap="round"/>
  <path d="M50 60 C55 55, 60 50, 65 45" fill="none" stroke="#8D6E63" stroke-width="2" stroke-linecap="round"/>
  
  <!-- 叶子 -->
  <path d="M65 55 C70 50, 75 45, 72 40" fill="#4CAF50" stroke="#45A049" stroke-width="1" stroke-linecap="round"/>
  <path d="M35 50 C30 45, 25 40, 28 35" fill="#4CAF50" stroke="#45A049" stroke-width="1" stroke-linecap="round"/>
  <path d="M65 45 C70 40, 75 35, 72 30" fill="#4CAF50" stroke="#45A049" stroke-width="1" stroke-linecap="round"/>
  <path d="M50 50 C55 45, 60 40, 58 35" fill="#4CAF50" stroke="#45A049" stroke-width="1" stroke-linecap="round"/>
  <path d="M50 55 C45 50, 40 45, 42 40" fill="#4CAF50" stroke="#45A049" stroke-width="1" stroke-linecap="round"/>
  
  <!-- 水滴 -->
  <path d="M30 50 Q50 40, 70 50 T90 50" fill="none" stroke="#2196F3" stroke-width="1" stroke-dasharray="2,2"/>
</svg>